PathFileType  4	(X/Y/Z) C:\Users\antoi\Documents\MyRepositories\mobilecap\ResultsAnalysis
DataRate	CameraRate	NumFrames	NumMarkers	Units	OrigDataRate	OrigDataStartFrame	OrigNumFrames
100.0	100.0	5	51	mm	100.0	229	261
Frame#	Time	r_knee			r_shank_antsup			r_ankle			r_calc			r_5meta			r_toe			L_knee			L_shank_antsup			L_ankle			L_calc			L_5meta			L_toe			r_sh2			r_sh3			r_sh4			L_sh2			L_sh3			r_thigh1			r_thigh2			r_thigh3			r_thigh4			r_thigh5			L_thigh1			L_thigh2			L_thigh3			L_thigh4			r.ASIS			r.PSIS			L.ASIS			L.PSIS			C7			R_Shoulder			L_Shoulder			R_Sternum			L_Sternum			R_humerus			R_elbow_med			R_elbow_lat			R_forearm			R_wrist_radius			R_wrist_ulna			L_humerus			L_elbow_med			L_elbow_lat			L_forearm			L_wrist_radius			L_wrist_ulna			R_HJC			L_HJC			R_HJC_reg			L_HJC_reg			
		X1	Y1	Z1	X2	Y2	Z2	X3	Y3	Z3	X4	Y4	Z4	X5	Y5	Z5	X6	Y6	Z6	X7	Y7	Z7	X8	Y8	Z8	X9	Y9	Z9	X10	Y10	Z10	X11	Y11	Z11	X12	Y12	Z12	X13	Y13	Z13	X14	Y14	Z14	X15	Y15	Z15	X16	Y16	Z16	X17	Y17	Z17	X18	Y18	Z18	X19	Y19	Z19	X20	Y20	Z20	X21	Y21	Z21	X22	Y22	Z22	X23	Y23	Z23	X24	Y24	Z24	X25	Y25	Z25	X26	Y26	Z26	X27	Y27	Z27	X28	Y28	Z28	X29	Y29	Z29	X30	Y30	Z30	X31	Y31	Z31	X32	Y32	Z32	X33	Y33	Z33	X34	Y34	Z34	X35	Y35	Z35	X36	Y36	Z36	X37	Y37	Z37	X38	Y38	Z38	X39	Y39	Z39	X40	Y40	Z40	X41	Y41	Z41	X42	Y42	Z42	X43	Y43	Z43	X44	Y44	Z44	X45	Y45	Z45	X46	Y46	Z46	X47	Y47	Z47	X48	Y48	Z48	X49	Y49	Z49	X50	Y50	Z50	X51	Y51	Z51	

229	2.28000000	-253.93824	708.09842	-357.61527	-286.23193	659.51566	-330.44663	-272.16917	301.60424	-387.15105	-325.87308	305.75794	-447.16782	-189.08652	183.84675	-359.91633	-133.83895	196.00796	-402.44645	-112.89962	809.26771	-752.81362	-108.34358	724.32082	-777.33746	-300.26474	464.98758	-772.41663	-366.48609	467.93653	-719.43006	-248.54863	337.28365	-805.55876	-195.17051	327.71465	-757.38740	-284.76344	543.10444	-328.09670	-215.92673	664.03689	-362.23216	-212.73225	550.11772	-370.38586	-181.58017	773.75794	-779.52625	-238.70938	665.83914	-789.81656	-181.68456	1001.95706	-428.90419	-168.49818	891.88685	-416.39880	-181.38238	873.79452	-352.44771	-236.92953	1004.84832	-333.72494	-227.80379	890.46293	-323.78328	-211.33883	1112.32981	-698.68955	-155.55949	988.25841	-746.23330	-316.25174	1064.64226	-716.66265	-258.32714	936.38437	-724.77595	-188.10577	1174.32095	-390.89248	-369.06806	1241.86319	-441.05935	-209.49754	1201.40830	-618.24959	-381.57949	1256.79221	-536.46974	-240.69414	1691.89108	-491.07242	-157.11538	1664.79695	-342.00903	-192.02030	1662.13110	-652.55345	-124.41939	1600.97701	-489.58388	-133.01949	1598.11144	-523.30296	-242.60826	1479.41477	-211.65599	-332.69519	1396.20664	-230.81361	-302.04632	1418.14290	-168.82968	-176.93582	1350.24310	-169.89686	-91.15698	1299.83819	-199.47286	-98.35732	1290.21075	-156.19103	-292.99606	1470.16392	-758.28928	-370.03707	1374.89241	-718.33621	-361.16479	1388.68427	-782.70014	-260.39863	1280.55121	-811.45365	-182.83187	1205.60013	-798.25842	-216.00447	1183.37616	-820.85075	-273.48677	1108.21600	-425.91095	-299.86217	1142.38851	-611.62996	-265.35493	1116.53378	-422.10071	-284.85520	1139.80351	-570.81011	
230	2.29000000	-253.50238	699.45045	-356.94266	-285.75815	651.08642	-329.95116	-271.26699	292.61718	-386.87287	-325.15835	296.55084	-446.85196	-187.39134	175.26049	-360.46998	-132.29721	188.04091	-402.99724	-111.54687	802.62749	-752.29365	-106.77398	718.08236	-776.89913	-298.89595	458.89062	-772.24498	-364.89143	461.35749	-718.70461	-247.22106	331.55545	-806.61653	-193.60343	321.64069	-758.43146	-284.14796	534.41899	-327.99330	-215.21835	655.44000	-361.60554	-212.05204	541.50660	-369.94146	-180.06904	767.32613	-778.55781	-237.18078	659.34466	-788.84861	-182.44694	993.73216	-427.33551	-168.58717	883.71443	-415.09416	-182.49203	865.23695	-351.24537	-238.86170	995.99414	-332.68988	-229.31428	881.58837	-323.35877	-212.72097	1103.87434	-698.80387	-155.73841	980.58157	-745.88464	-316.74620	1055.91577	-715.97448	-257.93252	927.99319	-723.27781	-190.01956	1165.38141	-388.28836	-371.02963	1232.83214	-440.90606	-209.14788	1191.95792	-615.87467	-382.85296	1248.21896	-536.52226	-239.95998	1683.21003	-490.02751	-156.44374	1655.35138	-340.39032	-191.58584	1652.01516	-651.97250	-124.12765	1591.48315	-488.30635	-132.64644	1588.51840	-522.21026	-242.67779	1469.32268	-210.83416	-332.78983	1386.12705	-230.78928	-301.60644	1407.60363	-168.70415	-175.71269	1341.35120	-173.67532	-89.93808	1292.88098	-206.27618	-96.18602	1282.13094	-163.10769	-294.97606	1460.57557	-756.28450	-370.80402	1364.31728	-715.36622	-362.41962	1378.24095	-780.34785	-256.59397	1274.45867	-806.95800	-175.62518	1203.46653	-791.96312	-207.24114	1179.67585	-814.88469	-275.55689	1099.35141	-424.27154	-299.77629	1133.17016	-610.35024	-266.72335	1106.78810	-420.47418	-285.11400	1130.72030	-569.19611	
231	2.30000000	-252.88229	689.87312	-356.28018	-285.20618	641.71279	-329.58027	-271.42655	282.96750	-386.99597	-324.91326	286.84377	-447.33831	-187.70268	165.52848	-360.59474	-132.33180	178.48464	-402.70551	-110.40308	794.95106	-751.57645	-105.27353	710.69719	-776.30318	-297.44411	451.66117	-772.36622	-363.33649	453.24245	-718.39824	-245.18444	324.82598	-807.54517	-191.43501	314.78878	-759.81273	-283.79992	524.83991	-327.95944	-214.27079	645.71534	-360.99345	-211.42958	531.76130	-369.46499	-178.78683	759.81685	-777.48680	-235.74030	651.73200	-788.11745	-182.85284	984.61851	-425.64490	-168.12374	874.65257	-413.43642	-183.40310	855.79200	-350.04974	-240.87432	986.13625	-331.82068	-230.73199	871.74032	-323.15134	-215.20365	1093.98228	-699.94701	-156.07142	971.82238	-745.14253	-317.36695	1046.21796	-715.06206	-257.67268	918.60336	-721.56807	-191.70457	1155.18816	-386.18796	-372.95705	1222.64389	-440.53222	-209.22179	1181.49495	-613.36907	-384.17543	1238.57740	-536.18250	-239.25213	1673.50703	-489.03523	-156.03446	1645.03895	-338.90345	-191.10939	1640.92748	-651.50281	-123.84183	1581.01896	-486.93382	-132.35860	1577.83678	-521.01978	-242.96187	1458.53495	-210.10356	-332.91572	1375.12313	-230.81221	-301.29642	1396.25110	-168.55917	-174.66277	1331.90470	-177.32500	-88.85885	1285.37363	-212.82555	-94.16241	1273.68191	-169.63668	-296.63307	1449.97445	-754.49160	-371.49400	1352.81090	-712.46979	-363.48929	1366.66618	-777.88312	-252.82329	1267.60107	-802.51135	-168.76072	1200.76821	-785.79289	-198.77407	1175.44982	-808.89828	-277.52818	1089.27356	-422.74956	-300.06275	1122.96991	-609.06316	-268.06801	1096.00378	-419.20345	-285.46613	1120.71299	-567.53865	
232	2.31000000	-251.97686	679.22361	-356.02021	-284.30186	631.29955	-329.70211	-272.48458	272.60876	-387.31034	-325.58963	276.55179	-448.12166	-189.41420	155.03963	-360.11318	-133.68800	167.57792	-401.85546	-109.42582	786.22994	-750.77990	-103.90916	702.15289	-775.62819	-295.82015	443.07074	-772.49431	-361.80579	443.64222	-718.50812	-242.39384	317.13376	-808.50265	-188.51302	307.22777	-761.19236	-283.53086	514.33776	-327.91151	-213.05443	634.88459	-360.56652	-210.83439	520.82433	-369.10128	-177.63445	751.25295	-776.44852	-234.35225	643.14885	-787.64268	-182.96408	974.65914	-423.87131	-167.35503	864.78002	-411.50907	-184.03291	845.56501	-348.74992	-242.80788	975.45032	-331.02089	-231.85234	861.11796	-322.72348	-217.47784	1083.41832	-700.73400	-156.43775	962.19153	-744.20741	-318.12385	1035.62943	-714.12744	-257.47819	908.27816	-719.78499	-193.40163	1144.03406	-384.34224	-374.84100	1211.39560	-439.92063	-209.74607	1170.24516	-611.08533	-385.48001	1227.94831	-535.49562	-238.63371	1662.69605	-488.14811	-155.81475	1633.86407	-337.46015	-190.63493	1628.93886	-650.92732	-123.60180	1569.50672	-485.69898	-132.22871	1566.10939	-519.68887	-243.44539	1447.11816	-209.35892	-333.10001	1363.16949	-230.87071	-301.22225	1384.26042	-168.19905	-173.80255	1321.76098	-180.90621	-88.03633	1277.22671	-219.10252	-92.33440	1264.68572	-175.86900	-297.81675	1438.38265	-753.24435	-371.69180	1340.58247	-709.88498	-364.48403	1354.45578	-775.96282	-249.11264	1260.05593	-798.21437	-162.09089	1197.40894	-779.84811	-190.57800	1170.66839	-803.21724	-279.41293	1078.17853	-421.34115	-300.68551	1111.93169	-607.79411	-269.52361	1084.21647	-418.22753	-285.99014	1109.83693	-566.15528	
233	2.32000000	-250.63210	667.59668	-355.98684	-282.98548	619.98560	-330.01554	-274.35210	261.34832	-387.61302	-327.28365	265.53846	-448.70403	-192.07629	143.68131	-359.43863	-136.09825	155.57717	-400.91014	-108.48134	776.55492	-750.15252	-102.67101	692.58671	-775.05792	-294.00643	433.18452	-772.64268	-360.12920	432.59363	-718.90680	-238.82211	308.98829	-810.62068	-184.92587	298.84692	-762.46969	-283.25077	502.95896	-328.06091	-211.55848	622.94421	-360.28684	-210.27543	508.80271	-368.90276	-176.50174	741.62528	-775.49244	-232.95784	633.57928	-787.23660	-182.84581	963.77368	-422.17522	-166.43389	854.10783	-409.43324	-184.20149	834.65257	-347.07234	-244.54016	963.89188	-330.28265	-232.55342	849.79781	-321.91237	-218.85436	1072.59964	-700.41895	-156.80925	951.76555	-743.26827	-319.01450	1024.08802	-713.01608	-257.34657	897.18409	-718.20099	-195.13751	1132.00531	-382.66609	-376.68341	1199.14539	-439.16979	-210.25525	1159.24385	-609.21467	-386.79625	1216.39099	-534.66049	-238.10050	1650.74933	-487.16047	-155.58039	1621.76695	-336.16438	-190.14242	1615.95766	-650.14100	-123.49547	1556.91458	-484.39530	-132.15750	1553.42555	-518.42156	-244.07961	1435.07014	-208.62250	-333.53516	1350.59429	-230.59687	-301.30096	1371.63753	-167.77372	-173.02852	1310.90542	-184.21008	-87.46688	1268.41512	-224.93065	-90.66323	1255.07048	-181.77877	-298.51485	1425.71307	-752.10902	-371.44633	1327.55158	-707.78468	-365.13956	1341.23561	-774.10356	-245.48734	1251.71756	-794.04619	-155.73766	1193.36835	-774.13629	-182.64963	1165.26240	-797.61938	-280.95220	1066.15038	-420.52759	-301.09888	1100.76991	-606.94170	-270.88095	1071.87513	-417.47895	-286.52581	1098.55525	-565.20708	
